#!OML:ASF F:\twosubjects\two\Thursday\Session 1\Rory.ASF
:FULLY-SPECIFIED
:DEGREES
331
root 8.73264 18.5713 -1.58084 5.23745 6.89052 2.39011
lowerback -2.38857 1.30934 -2.35414
upperback -0.111031 1.82228 -0.966663
thorax 1.18275 0.900312 0.388895
lowerneck -8.77249 -0.212979 1.28219
upperneck 30.3562 -1.85235 4.60888
head 11.3219 -0.104513 1.25519
rclavicle 7.37367e-015 2.78299e-015
rhumerus 29.2001 9.40424 -88.2413
rradius 46.8842
rwrist -5.0138
rhand -55.5761 19.01
rfingers 7.12502
rthumb -27.931 -8.93256
lclavicle 7.37367e-015 2.78299e-015
lhumerus 26.9546 -8.86572 79.0207
lradius 44.6858
lwrist 8.71298
lhand -27.5711 59.1981
lfingers 7.12502
lthumb -0.971709 1889.18
rfemur -11.3082 7.62131 14.6388
rtibia 22.9625
rfoot -15.3694 -23.3784
rtoes -3.75456
lfemur -6.76278 -3.73328 -20.0706
ltibia 17.2546
lfoot -14.3677 -1.05632
ltoes 0.516989
332
root 8.71263 18.5713 -1.57325 5.19576 7.07156 2.49602
lowerback -2.38073 1.25814 -2.39706
upperback 0.000771994 1.75815 -1.0152
thorax 1.29478 0.866294 0.36261
lowerneck -8.95546 -0.135678 1.4033
upperneck 30.2561 -1.72569 4.46542
head 11.3149 -0.0506101 1.19504
rclavicle -2.73981e-014 -5.61567e-015
rhumerus 29.4095 9.20666 -88.3882
rradius 47.0217
rwrist -5.83485
rhand -54.2589 19.7733
rfingers 7.12502
rthumb -26.6712 -8.36758
lclavicle -2.73981e-014 -5.61567e-015
lhumerus 27.0526 -8.52933 79.2929
lradius 44.5698
lwrist 8.259
lhand -27.6041 59.2764
lfingers 7.12502
lthumb -1.00352 1889.25
rfemur -11.1374 7.71018 14.6326
rtibia 22.8899
rfoot -15.4752 -23.5837
rtoes -3.30871
lfemur -6.76749 -3.47589 -20.0897
ltibia 17.3587
lfoot -14.4007 -1.44469
ltoes 0.143085
333
root 8.698 18.5718 -1.57067 5.2324 7.16156 2.48004
lowerback -2.30835 1.23063 -2.25976
upperback 0.0211346 1.71623 -1.04308
thorax 1.28091 0.846356 0.254524
lowerneck -9.2131 -0.103671 1.36691
upperneck 30.2704 -1.69679 4.51391
head 11.373 -0.0326779 1.22353
rclavicle -2.66465e-014 6.4605e-016
rhumerus 29.5621 9.44322 -88.2991
rradius 46.9005
rwrist -5.04559
rhand -55.0703 18.4318
rfingers 7.12502
rthumb -27.4474 -9.58846
lclavicle -2.66465e-014 6.4605e-016
lhumerus 27.1037 -7.93876 79.8192
lradius 44.4157
lwrist 7.48968
lhand -27.7521 58.9815
lfingers 7.12502
lthumb -1.14648 1888.96
rfemur -11.1627 7.16917 14.6962
rtibia 22.8248
rfoot -15.3753 -23.1852
rtoes -3.18488
lfemur -6.89924 -3.29808 -19.9965
ltibia 17.4553
lfoot -14.4043 -1.73839
ltoes 0.266017
334
root 8.68878 18.5721 -1.56539 5.24275 7.26921 2.12243
lowerback -2.15556 1.22248 -1.68237
upperback -0.0989387 1.68397 -1.06326
thorax 1.08998 0.835767 -0.0951644
lowerneck -9.38016 -0.0191863 1.54165
upperneck 30.4793 -1.66139 4.62624
head 11.4902 0.0234895 1.24327
rclavicle 1.32378e-014 2.32578e-014
rhumerus 29.4983 9.39724 -88.4685
rradius 46.8399
rwrist -4.98362
rhand -55.3092 19.1035
rfingers 7.12502
rthumb -27.6759 -8.88036
lclavicle 1.32378e-014 2.32578e-014
lhumerus 26.9292 -7.6992 79.9615
lradius 44.4481
lwrist 7.12648
lhand -26.944 57.9597
lfingers 7.12502
lthumb -0.366027 1887.94
rfemur -11.2311 6.63311 15.1244
rtibia 22.856
rfoot -15.3035 -22.7916
rtoes -2.99077
lfemur -6.9552 -3.80801 -19.5718
ltibia 17.4575
lfoot -14.423 -1.29595
ltoes 0.681558
335
root 8.68062 18.5714 -1.55383 5.32865 7.3974 1.9358
lowerback -2.25955 1.25144 -1.35953
upperback -0.181227 1.7158 -1.0797
thorax 1.07356 0.853653 -0.290137
lowerneck -9.46252 0.0767374 1.68752
upperneck 30.6256 -1.60306 4.76171
head 11.5658 0.0882268 1.27869
rclavicle -1.94623e-014 -4.47266e-015
rhumerus 29.4329 9.31152 -88.456
rradius 46.7615
rwrist -5.07324
rhand -55.3467 19.6247
rfingers 7.12502
rthumb -27.7117 -8.3533
lclavicle -1.94623e-014 -4.47266e-015
lhumerus 26.8777 -7.94918 79.7699
lradius 44.4932
lwrist 7.33346
lhand -25.9315 57.5126
lfingers 7.12502
lthumb 0.611869 1887.49
rfemur -11.3413 6.45338 15.3622
rtibia 22.9579
rfoot -15.3318 -22.7281
rtoes -3.1935
lfemur -7.01397 -4.02444 -19.3392
ltibia 17.4221
lfoot -14.4213 -1.11569
ltoes 0.972168
